<svg width="14" height="14" viewBox="0 0 14 14" fill="none" xmlns="http://www.w3.org/2000/svg">
<path d="M9.93572 4.06377C10.2764 4.40385 10.2764 4.95569 9.93572 5.29577L5.2953 9.93677C4.95522 10.2769 4.40339 10.2769 4.0633 9.93677C3.72322 9.59669 3.72322 9.04485 4.0633 8.70477L8.7043 4.06377C9.0438 3.72369 9.59564 3.72369 9.93572 4.06377ZM4.60522 11.8723C3.92214 12.5554 2.81089 12.5554 2.12722 11.8723C1.44414 11.1892 1.44414 10.0774 2.12722 9.39427L5.41664 6.10894C4.31297 5.84119 3.10022 6.1381 2.23805 7.00027L0.985637 8.25269C-0.329197 9.56752 -0.329197 11.6996 0.985637 13.0144C2.30047 14.3293 4.43255 14.3293 5.74739 13.0144L6.9998 11.7614C7.86139 10.8999 8.1583 9.6871 7.89055 8.58344L4.60522 11.8723ZM8.25164 0.986103L6.9998 2.2391C6.13764 3.10127 5.83897 4.31169 6.1073 5.41535L9.3938 2.12827C10.0775 1.44519 11.1887 1.44519 11.8718 2.12827C12.5555 2.81135 12.5555 3.92319 11.8718 4.60627L8.58472 7.89335C9.68897 8.1611 10.8994 7.86244 11.761 7.00085L13.0128 5.74844C14.3276 4.4336 14.3276 2.3021 13.0128 0.986686C11.6986 -0.328147 9.56647 -0.328147 8.25164 0.986103Z" fill="white"/>
</svg>
