<svg width="12" height="12" viewBox="0 0 12 12" fill="none" xmlns="http://www.w3.org/2000/svg">
<g id="Frame">
<path id="Vector" d="M3.617 1.50195C2.291 1.50195 1 2.41645 1 4.09045C1 5.95295 3.1725 7.95395 5.6515 10.3605C5.7485 10.455 5.8745 10.502 6 10.502C6.1255 10.502 6.2515 10.455 6.3485 10.3605C8.837 7.94495 11 5.95345 11 4.09045C11 2.41395 9.71 1.50645 8.3855 1.50645C7.4675 1.50645 6.5625 1.93945 6 2.78345C5.435 1.93545 4.5325 1.50195 3.617 1.50195ZM3.617 2.25195C4.612 2.25245 5.218 2.92845 5.6945 3.60195C5.7645 3.70095 5.8785 3.75995 6 3.76045C6.1215 3.76045 6.2355 3.70195 6.306 3.60345C6.7835 2.93395 7.401 2.25645 8.3855 2.25645C9.2835 2.25645 10.25 2.83045 10.25 4.09045C10.25 5.42595 8.8095 6.92695 6 9.65395C3.273 7.01145 1.75 5.45945 1.75 4.09045C1.75 3.52795 1.9445 3.05595 2.312 2.72695C2.6485 2.42495 3.1245 2.25195 3.617 2.25195Z" fill="black"/>
</g>
</svg>
